<svg xmlns="http://www.w3.org/2000/svg" width="150" height="150" version="1.0" viewBox="0 0 112.5 112.5"><defs><clipPath id="a"><path d="M44 35.383h34.402v41.066H44Zm0 0"/></clipPath><clipPath id="b"><path d="M48 35.383h30.402v41.066H48Zm0 0"/></clipPath><clipPath id="c"><path d="M33.602 66H43v10.45h-9.398Zm0 0"/></clipPath><clipPath id="d"><path d="M27.852 27.703h56v56.695h-56Zm0 0"/></clipPath><clipPath id="e"><path d="M33.078 27.703h45.84a5.226 5.226 0 0 1 5.227 5.227v46.14a5.226 5.226 0 0 1-5.227 5.227h-45.84a5.226 5.226 0 0 1-5.226-5.227V32.93a5.226 5.226 0 0 1 5.226-5.227Zm0 0"/></clipPath></defs><g clip-path="url(#a)"><path fill="#f6dccd" fill-rule="evenodd" d="M75.57 76.602H58.79c-.704-3.942-3.083-5.454-7.134-4.536-2.703.47-4.031.09-3.972-1.136-.012-1.899-.336-2.59-.829-2.961-1.085-.832.122-1.91 1.368-2.586-1.047-.082-2.391-.922-2.102-1.598.465-1.582.246-2.219-.469-2.59-1.39-.68-1.675-1.547-.847-2.597.957-1.04 1.71-2.094 2.273-3.168a5.28 5.28 0 0 0 .59-3.075 15.753 15.753 0 0 1-.078-1.554c0-8.508 6.898-15.406 15.406-15.406 8.508 0 15.406 6.898 15.406 15.406 0 3.797-1.37 7.27-3.648 9.957a5.201 5.201 0 0 0-1.266 2.937c-.394 3.59.496 7.754 2.551 12.168a.5.5 0 0 1-.031.496.51.51 0 0 1-.438.243Zm0 0"/></g><g clip-path="url(#b)"><path fill="#f1cbbc" fill-rule="evenodd" d="M75.57 76.602h-3.117a.5.5 0 0 0 .438-.243.51.51 0 0 0 .035-.496c-2.059-4.414-2.946-8.578-2.555-12.168a5.255 5.255 0 0 1 1.266-2.937 15.343 15.343 0 0 0 3.648-9.957c0-7.98-6.07-14.547-13.847-15.328.511-.051 1.03-.078 1.558-.078 8.508 0 15.406 6.898 15.406 15.406 0 3.797-1.37 7.27-3.648 9.957a5.201 5.201 0 0 0-1.266 2.937c-.394 3.59.496 7.754 2.551 12.168a.5.5 0 0 1-.031.496.51.51 0 0 1-.438.243Zm-23.468-4.63c-.149.032-.297.06-.446.094-1.476.254-2.539.262-3.191.012l.074-.012c1.383-.316 2.57-.343 3.563-.093Zm0 0"/></g><g clip-path="url(#c)"><path fill="#5271ff" fill-rule="evenodd" d="m37.219 73.703.758-.926a.732.732 0 1 1 1.133.93l-2.06 2.508a.739.739 0 0 1-1.132 0l-2.059-2.508a.732.732 0 1 1 1.133-.93l.758.926V70.61c0-1.035.41-2.027 1.145-2.757a3.89 3.89 0 0 1 2.753-1.141h2.184a.734.734 0 1 1 0 1.465h-2.184a2.43 2.43 0 0 0-2.43 2.433Zm0 0"/></g><path fill="#5ce1e6" fill-rule="evenodd" d="m40.504 61.902-.895-.734a.736.736 0 0 1-.101-1.031.737.737 0 0 1 1.035-.102l2.504 2.059c.168.14.27.347.27.566a.743.743 0 0 1-.27.567l-2.504 2.058a.737.737 0 0 1-1.035-.101.736.736 0 0 1 .101-1.032l.957-.785h-.918a3.89 3.89 0 0 1-2.753-1.14 3.885 3.885 0 0 1-1.145-2.754v-6.621a.735.735 0 0 1 1.469 0v6.62a2.427 2.427 0 0 0 2.43 2.43Zm0 0"/><g clip-path="url(#d)"><g clip-path="url(#e)"><path fill="none" stroke="#fff" stroke-width="1.49336" d="M33.078 27.703h45.84a5.226 5.226 0 0 1 5.226 5.227v46.14a5.226 5.226 0 0 1-5.226 5.227h-45.84a5.226 5.226 0 0 1-5.226-5.227V32.93a5.226 5.226 0 0 1 5.226-5.227Zm0 0"/></g></g></svg>