<svg xmlns="http://www.w3.org/2000/svg" xmlns:xlink="http://www.w3.org/1999/xlink" width="150" zoomAndPan="magnify" viewBox="0 0 112.5 112.499997" height="150" preserveAspectRatio="xMidYMid meet" version="1.0"><defs><filter x="0%" y="0%" width="100%" height="100%" id="888ab19d6c"><feColorMatrix values="0 0 0 0 1 0 0 0 0 1 0 0 0 0 1 0 0 0 1 0" color-interpolation-filters="sRGB"/></filter><clipPath id="752d7703df"><path d="M 44 27.359375 L 68 27.359375 L 68 62.453125 L 44 62.453125 Z M 44 27.359375 " clip-rule="nonzero"/></clipPath><clipPath id="723ded6abc"><path d="M 50 27.359375 L 62 27.359375 L 62 57 L 50 57 Z M 50 27.359375 " clip-rule="nonzero"/></clipPath><mask id="2480d925c1"><g filter="url(#888ab19d6c)"><rect x="-11.25" width="135" fill="#000000" y="-11.25" height="134.999996" fill-opacity="0.57"/></g></mask><clipPath id="dcfe9cb321"><path d="M 0.414062 0.71875 L 11.644531 0.71875 L 11.644531 29.867188 L 0.414062 29.867188 Z M 0.414062 0.71875 " clip-rule="nonzero"/></clipPath><clipPath id="64078494c1"><rect x="0" width="12" y="0" height="30"/></clipPath><mask id="dec7d4ba96"><g filter="url(#888ab19d6c)"><rect x="-11.25" width="135" fill="#000000" y="-11.25" height="134.999996" fill-opacity="0.57"/></g></mask><clipPath id="d68a0ece83"><path d="M 0.566406 0.671875 L 7.257812 0.671875 L 7.257812 22.894531 L 0.566406 22.894531 Z M 0.566406 0.671875 " clip-rule="nonzero"/></clipPath><clipPath id="cca6c933fc"><rect x="0" width="8" y="0" height="23"/></clipPath><clipPath id="0dbb08f271"><path d="M 50.046875 63.78125 L 57 63.78125 L 57 76.476562 L 50.046875 76.476562 Z M 50.046875 63.78125 " clip-rule="nonzero"/></clipPath><clipPath id="5bfb3c85ef"><path d="M 55 63.78125 L 61.992188 63.78125 L 61.992188 76.476562 L 55 76.476562 Z M 55 63.78125 " clip-rule="nonzero"/></clipPath><clipPath id="120480fdf3"><path d="M 27.851562 23.585938 L 83.851562 23.585938 L 83.851562 80.28125 L 27.851562 80.28125 Z M 27.851562 23.585938 " clip-rule="nonzero"/></clipPath><clipPath id="7969a5eb91"><path d="M 33.078125 23.585938 L 78.917969 23.585938 C 81.804688 23.585938 84.144531 25.925781 84.144531 28.8125 L 84.144531 74.949219 C 84.144531 77.835938 81.804688 80.175781 78.917969 80.175781 L 33.078125 80.175781 C 30.191406 80.175781 27.851562 77.835938 27.851562 74.949219 L 27.851562 28.8125 C 27.851562 25.925781 30.191406 23.585938 33.078125 23.585938 Z M 33.078125 23.585938 " clip-rule="nonzero"/></clipPath></defs><g clip-path="url(#752d7703df)"><path fill="#f1cbbc" d="M 51.398438 59.824219 C 52.238281 60.476562 53.15625 62.125 55.996094 62.125 C 58.847656 62.125 59.746094 60.476562 60.59375 59.824219 C 61.699219 58.96875 65.050781 60.054688 67.171875 56.546875 C 69.304688 53.042969 64.691406 50.464844 63.78125 48.851562 C 62.875 47.230469 60.378906 38.355469 59.785156 33.242188 C 59.191406 28.117188 57.933594 27.359375 55.996094 27.359375 C 54.054688 27.359375 52.792969 28.117188 52.210938 33.242188 C 51.617188 38.363281 49.121094 47.230469 48.210938 48.851562 C 47.304688 50.46875 42.691406 53.042969 44.820312 56.546875 C 46.953125 60.046875 50.296875 58.96875 51.398438 59.824219 Z M 51.398438 59.824219 " fill-opacity="1" fill-rule="nonzero"/></g><path fill="#e2a180" d="M 53.824219 59.726562 C 53.824219 59.726562 53.035156 55.78125 49.890625 55.128906 C 46.75 54.476562 46.417969 56.089844 47.167969 57.320312 C 47.917969 58.554688 51.851562 57.550781 53.824219 59.726562 Z M 53.824219 59.726562 " fill-opacity="1" fill-rule="nonzero"/><path fill="#e2a180" d="M 64.824219 57.320312 C 65.574219 56.089844 65.246094 54.476562 62.101562 55.128906 C 58.960938 55.78125 58.171875 59.726562 58.171875 59.726562 C 60.152344 57.550781 64.074219 58.554688 64.824219 57.320312 Z M 64.824219 57.320312 " fill-opacity="1" fill-rule="nonzero"/><path fill="#04022a" d="M 52.523438 56.890625 C 51.925781 56.097656 51.078125 55.375 49.882812 55.136719 C 49.398438 55.03125 48.96875 54.984375 48.609375 54.984375 C 48.488281 54.984375 48.382812 54.992188 48.28125 55 C 48.933594 56.019531 50.199219 57.199219 52.523438 56.890625 Z M 52.523438 56.890625 " fill-opacity="1" fill-rule="nonzero"/><path fill="#04022a" d="M 63.714844 54.992188 C 63.609375 54.984375 63.5 54.976562 63.386719 54.976562 C 63.027344 54.976562 62.605469 55.023438 62.109375 55.128906 C 60.925781 55.375 60.070312 56.089844 59.46875 56.882812 C 61.796875 57.199219 63.0625 56.019531 63.714844 54.992188 Z M 63.714844 54.992188 " fill-opacity="1" fill-rule="nonzero"/><g clip-path="url(#723ded6abc)"><g mask="url(#2480d925c1)"><g transform="matrix(1, 0, 0, 1, 50, 27)"><g clip-path="url(#64078494c1)"><g clip-path="url(#dcfe9cb321)"><path fill="#f5d5bc" d="M 5.996094 29.769531 C 9.425781 29.277344 10.957031 26.734375 11.375 24.875 C 11.847656 22.804688 8.921875 4.335938 8.234375 2.707031 C 7.648438 1.328125 6.996094 1.164062 5.996094 0.953125 C 5 1.164062 4.347656 1.328125 3.761719 2.707031 C 3.074219 4.335938 0.148438 22.804688 0.621094 24.875 C 1.039062 26.734375 2.570312 29.277344 5.996094 29.769531 Z M 5.996094 29.769531 " fill-opacity="1" fill-rule="nonzero"/></g></g></g></g></g><g mask="url(#dec7d4ba96)"><g transform="matrix(1, 0, 0, 1, 52, 28)"><g clip-path="url(#cca6c933fc)"><g clip-path="url(#d68a0ece83)"><path fill="#f5d5bc" d="M 3.996094 22.808594 C 5.910156 23.003906 6.9375 21.441406 7.179688 19.648438 C 7.441406 17.683594 6.128906 5.085938 5.722656 3.113281 C 5.40625 1.535156 4.933594 0.898438 3.996094 0.695312 C 3.058594 0.890625 2.585938 1.535156 2.273438 3.113281 C 1.875 5.089844 0.554688 17.683594 0.824219 19.648438 C 1.058594 21.441406 2.085938 23.003906 3.996094 22.808594 Z M 3.996094 22.808594 " fill-opacity="1" fill-rule="nonzero"/></g></g></g></g><g clip-path="url(#0dbb08f271)"><path fill="#5ce1e6" d="M 53.617188 63.921875 C 53.523438 63.832031 53.433594 63.785156 53.296875 63.785156 C 53.160156 63.785156 53.066406 63.832031 52.976562 63.921875 L 50.230469 66.667969 C 50.046875 66.851562 50.046875 67.125 50.230469 67.308594 C 50.320312 67.402344 50.457031 67.445312 50.550781 67.445312 C 50.640625 67.445312 50.777344 67.402344 50.871094 67.308594 L 52.839844 65.339844 L 52.792969 76.144531 C 52.792969 76.417969 52.976562 76.601562 53.25 76.601562 C 53.523438 76.601562 53.707031 76.417969 53.707031 76.144531 L 53.753906 65.386719 L 55.628906 67.308594 C 55.8125 67.492188 56.089844 67.492188 56.269531 67.308594 C 56.453125 67.125 56.453125 66.851562 56.269531 66.667969 Z M 53.617188 63.921875 " fill-opacity="1" fill-rule="nonzero"/></g><g clip-path="url(#5bfb3c85ef)"><path fill="#5ce1e6" d="M 58.742188 63.785156 C 58.46875 63.785156 58.285156 63.96875 58.285156 64.242188 L 58.238281 75 L 56.363281 73.03125 C 56.179688 72.847656 55.90625 72.847656 55.722656 73.03125 C 55.539062 73.214844 55.539062 73.488281 55.722656 73.671875 L 58.375 76.464844 C 58.46875 76.554688 58.558594 76.601562 58.695312 76.601562 C 58.835938 76.601562 58.925781 76.554688 59.019531 76.464844 L 61.765625 73.671875 C 61.945312 73.488281 61.945312 73.214844 61.765625 73.03125 C 61.582031 72.847656 61.304688 72.847656 61.125 73.03125 L 59.15625 75 L 59.199219 64.242188 C 59.199219 64.015625 59.019531 63.785156 58.742188 63.785156 Z M 58.742188 63.785156 " fill-opacity="1" fill-rule="nonzero"/></g><g clip-path="url(#120480fdf3)"><g clip-path="url(#7969a5eb91)"><path stroke-linecap="butt" transform="matrix(0.746681, 0, 0, 0.746681, 27.851216, 23.585244)" fill="none" stroke-linejoin="miter" d="M 7.000186 0.00092825 L 68.391621 0.00092825 C 72.257686 0.00092825 75.391343 3.134586 75.391343 7.000651 L 75.391343 68.789679 C 75.391343 72.655743 72.257686 75.789401 68.391621 75.789401 L 7.000186 75.789401 C 3.134121 75.789401 0.000463503 72.655743 0.000463503 68.789679 L 0.000463503 7.000651 C 0.000463503 3.134586 3.134121 0.00092825 7.000186 0.00092825 Z M 7.000186 0.00092825 " stroke="#ffffff" stroke-width="2" stroke-opacity="1" stroke-miterlimit="4"/></g></g></svg>