<svg xmlns="http://www.w3.org/2000/svg" width="150" height="150" version="1.0" viewBox="0 0 112.5 112.5"><defs><clipPath id="b"><path d="M44 27.36h24v35.093H44Zm0 0"/></clipPath><clipPath id="c"><path d="M50 27.36h12V57H50Zm0 0"/></clipPath><clipPath id="f"><path d="M.414.719h11.23v29.148H.415Zm0 0"/></clipPath><clipPath id="e"><path d="M0 0h12v30H0z"/></clipPath><clipPath id="i"><path d="M.566.672h6.692v22.223H.566Zm0 0"/></clipPath><clipPath id="h"><path d="M0 0h8v23H0z"/></clipPath><clipPath id="j"><path d="M27.852 23.586h56V80.28h-56Zm0 0"/></clipPath><clipPath id="k"><path d="M33.078 23.586h45.84a5.226 5.226 0 0 1 5.227 5.227v46.136a5.226 5.226 0 0 1-5.227 5.227h-45.84a5.226 5.226 0 0 1-5.226-5.227V28.813a5.226 5.226 0 0 1 5.226-5.227Zm0 0"/></clipPath><clipPath id="l"><path d="M50.047 63.781H57v12.696h-6.953Zm0 0"/></clipPath><clipPath id="m"><path d="M55 63.781h6.992v12.696H55Zm0 0"/></clipPath><mask id="d"><g filter="url(#a)"><path fill-opacity=".57" d="M-11.25-11.25h135v135h-135z"/></g></mask><mask id="g"><g filter="url(#a)"><path fill-opacity=".57" d="M-11.25-11.25h135v135h-135z"/></g></mask><filter id="a" width="100%" height="100%" x="0%" y="0%"><feColorMatrix color-interpolation-filters="sRGB" values="0 0 0 0 1 0 0 0 0 1 0 0 0 0 1 0 0 0 1 0"/></filter></defs><g clip-path="url(#b)"><path fill="#f1cbbc" d="M51.398 59.824c.84.653 1.758 2.301 4.598 2.301 2.852 0 3.75-1.648 4.598-2.3 1.105-.856 4.457.23 6.578-3.278 2.133-3.504-2.48-6.082-3.39-7.695-.907-1.622-3.403-10.497-3.997-15.61-.594-5.125-1.851-5.883-3.789-5.883-1.941 0-3.203.758-3.785 5.883-.594 5.121-3.09 13.988-4 15.61-.906 1.617-5.52 4.191-3.39 7.695 2.132 3.5 5.476 2.422 6.577 3.277Zm0 0"/></g><path fill="#e2a180" d="M53.824 59.727s-.789-3.946-3.933-4.598c-3.141-.652-3.473.96-2.723 2.191.75 1.235 4.684.23 6.656 2.407ZM64.824 57.32c.75-1.23.422-2.843-2.722-2.191-3.141.652-3.93 4.598-3.93 4.598 1.98-2.176 5.902-1.172 6.652-2.407Zm0 0"/><path fill="#04022a" d="M52.523 56.89c-.597-.792-1.445-1.515-2.64-1.753a6.079 6.079 0 0 0-1.274-.153c-.12 0-.226.008-.328.016.653 1.02 1.918 2.2 4.242 1.89ZM63.715 54.992a4.4 4.4 0 0 0-.328-.015 6.2 6.2 0 0 0-1.278.152c-1.183.246-2.039.96-2.64 1.754 2.328.316 3.593-.863 4.246-1.89Zm0 0"/><g clip-path="url(#c)" mask="url(#d)"><g clip-path="url(#e)" transform="translate(50 27)"><g clip-path="url(#f)"><path fill="#f5d5bc" d="M5.996 29.77c3.43-.493 4.961-3.036 5.379-4.895.473-2.07-2.453-20.54-3.14-22.168C7.647 1.328 6.995 1.164 5.995.953c-.996.211-1.648.375-2.234 1.754C3.074 4.336.148 22.805.622 24.875c.417 1.86 1.948 4.402 5.374 4.895Zm0 0"/></g></g></g><g mask="url(#g)"><g clip-path="url(#h)" transform="translate(52 28)"><g clip-path="url(#i)"><path fill="#f5d5bc" d="M3.996 22.809c1.914.195 2.942-1.368 3.184-3.16.261-1.965-1.051-14.563-1.457-16.536C5.406 1.535 4.933.898 3.996.695c-.937.196-1.41.84-1.723 2.418C1.875 5.09.555 17.683.824 19.648c.235 1.793 1.262 3.356 3.172 3.16Zm0 0"/></g></g></g><g clip-path="url(#j)"><g clip-path="url(#k)"><path fill="none" stroke="#fff" stroke-width="1.49336" d="M33.078 23.586h45.84a5.226 5.226 0 0 1 5.226 5.226V74.95a5.226 5.226 0 0 1-5.226 5.227h-45.84a5.226 5.226 0 0 1-5.226-5.227V28.812a5.226 5.226 0 0 1 5.226-5.226Zm0 0"/></g></g><g clip-path="url(#l)"><path fill="#5271ff" d="M53.617 63.922a.425.425 0 0 0-.32-.137.419.419 0 0 0-.32.137l-2.747 2.746a.441.441 0 0 0 0 .64c.09.094.227.137.32.137a.49.49 0 0 0 .321-.136l1.969-1.97-.047 10.806c0 .273.184.457.457.457s.457-.184.457-.457l.047-10.758 1.875 1.922c.184.183.46.183.64 0a.441.441 0 0 0 0-.641Zm0 0"/></g><g clip-path="url(#m)"><path fill="#5271ff" d="M58.742 63.785c-.273 0-.457.184-.457.457L58.238 75l-1.875-1.969a.441.441 0 0 0-.64 0 .441.441 0 0 0 0 .64l2.652 2.794c.094.09.184.137.32.137.14 0 .23-.047.325-.137l2.746-2.793a.448.448 0 0 0 0-.64.441.441 0 0 0-.641 0L59.156 75l.043-10.758a.457.457 0 0 0-.457-.457Zm0 0"/></g></svg>