<svg xmlns="http://www.w3.org/2000/svg" xmlns:xlink="http://www.w3.org/1999/xlink" width="150" zoomAndPan="magnify" viewBox="0 0 112.5 112.499997" height="150" preserveAspectRatio="xMidYMid meet" version="1.0"><defs><clipPath id="afcf52eae5"><path d="M 44 35.382812 L 78.402344 35.382812 L 78.402344 76.449219 L 44 76.449219 Z M 44 35.382812 " clip-rule="nonzero"/></clipPath><clipPath id="17ff554588"><path d="M 48 35.382812 L 78.402344 35.382812 L 78.402344 76.449219 L 48 76.449219 Z M 48 35.382812 " clip-rule="nonzero"/></clipPath><clipPath id="334b853f0e"><path d="M 33.601562 66 L 43 66 L 43 76.449219 L 33.601562 76.449219 Z M 33.601562 66 " clip-rule="nonzero"/></clipPath><clipPath id="7a0ee07103"><path d="M 27.851562 27.703125 L 83.851562 27.703125 L 83.851562 84.398438 L 27.851562 84.398438 Z M 27.851562 27.703125 " clip-rule="nonzero"/></clipPath><clipPath id="0117618293"><path d="M 33.078125 27.703125 L 78.917969 27.703125 C 81.804688 27.703125 84.144531 30.042969 84.144531 32.929688 L 84.144531 79.070312 C 84.144531 81.957031 81.804688 84.296875 78.917969 84.296875 L 33.078125 84.296875 C 30.191406 84.296875 27.851562 81.957031 27.851562 79.070312 L 27.851562 32.929688 C 27.851562 30.042969 30.191406 27.703125 33.078125 27.703125 Z M 33.078125 27.703125 " clip-rule="nonzero"/></clipPath></defs><g clip-path="url(#afcf52eae5)"><path fill="#f6dccd" d="M 75.570312 76.601562 L 58.789062 76.601562 C 58.085938 72.660156 55.707031 71.148438 51.65625 72.066406 C 48.953125 72.535156 47.625 72.15625 47.683594 70.929688 C 47.671875 69.03125 47.347656 68.339844 46.855469 67.96875 C 45.769531 67.136719 46.976562 66.058594 48.222656 65.382812 C 47.175781 65.300781 45.832031 64.460938 46.121094 63.785156 C 46.585938 62.203125 46.367188 61.566406 45.652344 61.195312 C 44.261719 60.515625 43.976562 59.648438 44.804688 58.597656 C 45.761719 57.558594 46.515625 56.503906 47.078125 55.429688 C 47.589844 54.441406 47.777344 53.464844 47.667969 52.355469 C 47.617188 51.84375 47.589844 51.324219 47.589844 50.800781 C 47.589844 42.292969 54.488281 35.394531 62.996094 35.394531 C 71.503906 35.394531 78.402344 42.292969 78.402344 50.800781 C 78.402344 54.597656 77.03125 58.070312 74.753906 60.757812 C 74.015625 61.625 73.609375 62.5625 73.488281 63.695312 C 73.09375 67.285156 73.984375 71.449219 76.039062 75.863281 C 76.117188 76.03125 76.105469 76.210938 76.007812 76.359375 C 75.90625 76.515625 75.75 76.601562 75.570312 76.601562 Z M 75.570312 76.601562 " fill-opacity="1" fill-rule="evenodd"/></g><g clip-path="url(#17ff554588)"><path fill="#f1cbbc" d="M 75.570312 76.601562 L 72.453125 76.601562 C 72.636719 76.601562 72.792969 76.515625 72.890625 76.359375 C 72.988281 76.210938 73 76.03125 72.925781 75.863281 C 70.867188 71.449219 69.980469 67.285156 70.371094 63.695312 C 70.496094 62.5625 70.902344 61.625 71.636719 60.757812 C 73.914062 58.070312 75.285156 54.597656 75.285156 50.800781 C 75.285156 42.820312 69.214844 36.253906 61.4375 35.472656 C 61.949219 35.421875 62.46875 35.394531 62.996094 35.394531 C 71.503906 35.394531 78.402344 42.292969 78.402344 50.800781 C 78.402344 54.597656 77.03125 58.070312 74.753906 60.757812 C 74.015625 61.625 73.609375 62.5625 73.488281 63.695312 C 73.09375 67.285156 73.984375 71.449219 76.039062 75.863281 C 76.117188 76.03125 76.105469 76.210938 76.007812 76.359375 C 75.90625 76.515625 75.75 76.601562 75.570312 76.601562 Z M 52.101562 71.972656 C 51.953125 72.003906 51.804688 72.03125 51.65625 72.066406 C 50.179688 72.320312 49.117188 72.328125 48.464844 72.078125 L 48.539062 72.066406 C 49.921875 71.75 51.109375 71.722656 52.101562 71.972656 Z M 52.101562 71.972656 " fill-opacity="1" fill-rule="evenodd"/></g><g clip-path="url(#334b853f0e)"><path fill="#5271ff" d="M 37.21875 73.703125 L 37.976562 72.777344 C 38.234375 72.464844 38.695312 72.421875 39.007812 72.675781 C 39.320312 72.933594 39.367188 73.394531 39.109375 73.707031 L 37.050781 76.214844 C 36.910156 76.382812 36.703125 76.480469 36.484375 76.480469 C 36.265625 76.480469 36.058594 76.382812 35.917969 76.214844 L 33.859375 73.707031 C 33.601562 73.394531 33.648438 72.933594 33.960938 72.675781 C 34.273438 72.421875 34.734375 72.464844 34.992188 72.777344 L 35.75 73.703125 L 35.75 70.609375 C 35.75 69.574219 36.160156 68.582031 36.894531 67.851562 C 37.625 67.121094 38.613281 66.710938 39.648438 66.710938 L 41.832031 66.710938 C 42.238281 66.710938 42.566406 67.039062 42.566406 67.445312 C 42.566406 67.847656 42.238281 68.175781 41.832031 68.175781 L 39.648438 68.175781 C 39.003906 68.175781 38.386719 68.433594 37.929688 68.890625 C 37.472656 69.34375 37.21875 69.964844 37.21875 70.609375 Z M 37.21875 73.703125 " fill-opacity="1" fill-rule="evenodd"/></g><path fill="#5ce1e6" d="M 40.503906 61.902344 L 39.609375 61.167969 C 39.296875 60.910156 39.253906 60.449219 39.507812 60.136719 C 39.765625 59.824219 40.230469 59.777344 40.542969 60.035156 L 43.046875 62.09375 C 43.214844 62.234375 43.316406 62.441406 43.316406 62.660156 C 43.316406 62.878906 43.214844 63.085938 43.046875 63.226562 L 40.542969 65.285156 C 40.230469 65.542969 39.765625 65.496094 39.507812 65.183594 C 39.253906 64.871094 39.296875 64.410156 39.609375 64.152344 L 40.566406 63.367188 L 39.648438 63.367188 C 38.613281 63.367188 37.625 62.957031 36.894531 62.226562 C 36.160156 61.496094 35.75 60.503906 35.75 59.472656 L 35.75 52.851562 C 35.75 52.449219 36.078125 52.121094 36.484375 52.121094 C 36.886719 52.121094 37.21875 52.449219 37.21875 52.851562 L 37.21875 59.472656 C 37.21875 60.117188 37.472656 60.734375 37.929688 61.191406 C 38.386719 61.648438 39.003906 61.902344 39.648438 61.902344 Z M 40.503906 61.902344 " fill-opacity="1" fill-rule="evenodd"/><g clip-path="url(#7a0ee07103)"><g clip-path="url(#0117618293)"><path stroke-linecap="butt" transform="matrix(0.746681, 0, 0, 0.746681, 27.851216, 27.704231)" fill="none" stroke-linejoin="miter" d="M 7.000186 -0.00148157 L 68.391621 -0.00148157 C 72.257686 -0.00148157 75.391343 3.132176 75.391343 6.998241 L 75.391343 68.7925 C 75.391343 72.658565 72.257686 75.792222 68.391621 75.792222 L 7.000186 75.792222 C 3.134121 75.792222 0.000463503 72.658565 0.000463503 68.7925 L 0.000463503 6.998241 C 0.000463503 3.132176 3.134121 -0.00148157 7.000186 -0.00148157 Z M 7.000186 -0.00148157 " stroke="#ffffff" stroke-width="2" stroke-opacity="1" stroke-miterlimit="4"/></g></g></svg>